<?xml version="1.0" encoding="UTF-8"?>
<svg width="512pt" height="512pt" version="1.1" viewBox="0 0 512 512" xmlns="http://www.w3.org/2000/svg">
 <g fill="#4ade7f">
  <path d="m486.4 512h-460.8c-14.133-0.015625-25.586-11.469-25.602-25.602v-213.33c0.015625-14.133 11.469-25.586 25.602-25.602h460.8c14.133 0.015625 25.586 11.469 25.602 25.602v213.33c-0.015625 14.133-11.469 25.586-25.602 25.602zm-460.8-247.46c-4.7109 0.003906-8.5312 3.8203-8.5352 8.5312v213.33c0.003906 4.7109 3.8242 8.5312 8.5352 8.5352h460.8c4.7109-0.003906 8.5312-3.8242 8.5352-8.5352v-213.33c-0.003906-4.7109-3.8242-8.5273-8.5352-8.5312z"/>
  <path d="m486.4 264.54h-460.8c-2.2656 0-4.4375-0.89844-6.0352-2.5-1.6016-1.6016-2.5-3.7734-2.5-6.0352v-196.27c0.015625-14.133 11.469-25.586 25.602-25.602h426.66c14.133 0.015626 25.586 11.469 25.602 25.602v196.27c0 2.2617-0.89844 4.4336-2.5 6.0352-1.5977 1.6016-3.7695 2.5-6.0352 2.5zm-452.27-17.07h443.73v-187.73c-0.003907-4.7109-3.8242-8.5312-8.5352-8.5352h-426.66c-4.7109 0.003906-8.5312 3.8242-8.5352 8.5352z"/>
  <path d="m452.27 264.54h-392.53c-2.2656 0-4.4336-0.89844-6.0352-2.5-1.6016-1.6016-2.5-3.7734-2.5-6.0352v-179.2c0-2.2656 0.89844-4.4336 2.5-6.0352 1.6016-1.6016 3.7695-2.5 6.0352-2.5h392.53c2.2656 0 4.4336 0.89844 6.0352 2.5 1.6016 1.6016 2.5 3.7695 2.5 6.0352v179.2c0 2.2617-0.89844 4.4336-2.5 6.0352-1.6016 1.6016-3.7695 2.5-6.0352 2.5zm-384-17.07h375.47v-162.13h-375.47z"/>
  <path d="m298.67 51.199h-85.336c-2.2617 0-4.4336-0.89844-6.0352-2.4961-1.5977-1.6016-2.4961-3.7734-2.4961-6.0352v-17.066c0.015625-14.133 11.469-25.586 25.598-25.602h51.203c14.129 0.015625 25.582 11.469 25.598 25.602v17.066c0 2.2617-0.89844 4.4336-2.4961 6.0352-1.6016 1.5977-3.7734 2.4961-6.0352 2.4961zm-76.801-17.066h68.266v-8.5312c-0.003906-4.7109-3.8203-8.5312-8.5312-8.5352h-51.203c-4.7109 0.003906-8.5273 3.8242-8.5312 8.5352z"/>
  <path d="m110.93 51.199h-51.199c-2.2656 0-4.4336-0.89844-6.0352-2.4961-1.6016-1.6016-2.5-3.7734-2.5-6.0352v-17.066c0.015625-14.133 11.469-25.586 25.602-25.602h17.066c14.133 0.015625 25.586 11.469 25.598 25.602v17.066c0.003906 2.2617-0.89453 4.4336-2.4961 6.0352-1.6016 1.5977-3.7734 2.4961-6.0352 2.4961zm-42.668-17.066h34.133v-8.5312c-0.003907-4.7109-3.8203-8.5312-8.5312-8.5352h-17.066c-4.7109 0.003906-8.5312 3.8242-8.5352 8.5352z"/>
  <path d="m452.27 51.199h-51.199c-2.2617 0-4.4336-0.89844-6.0352-2.4961-1.6016-1.6016-2.5-3.7734-2.4961-6.0352v-17.066c0.011719-14.133 11.465-25.586 25.598-25.602h17.066c14.133 0.015625 25.586 11.469 25.602 25.602v17.066c0 2.2617-0.89844 4.4336-2.5 6.0352-1.6016 1.5977-3.7695 2.4961-6.0352 2.4961zm-42.664-17.066h34.133v-8.5312c-0.003906-4.7109-3.8242-8.5312-8.5352-8.5352h-17.066c-4.7109 0.003906-8.5273 3.8242-8.5312 8.5352z"/>
  <path d="m93.867 418.13h-17.066c-14.133-0.015624-25.586-11.469-25.602-25.598v-136.54c0-2.2617 0.89844-4.4336 2.5-6.0352 1.6016-1.6016 3.7695-2.5 6.0352-2.5h51.199c2.2617 0 4.4336 0.89844 6.0352 2.5 1.6016 1.6016 2.5 3.7734 2.4961 6.0352v136.54c-0.011719 14.129-11.465 25.582-25.598 25.598zm-25.602-153.6v128c0.003906 4.7109 3.8242 8.5273 8.5352 8.5312h17.066c4.7109-0.003906 8.5273-3.8203 8.5312-8.5312v-128z"/>
  <path d="m110.93 358.4h-51.199c-4.7148 0-8.5352-3.8203-8.5352-8.5312 0-4.7148 3.8203-8.5352 8.5352-8.5352h51.199c4.7109 0 8.5312 3.8203 8.5312 8.5352 0 4.7109-3.8203 8.5312-8.5312 8.5312z"/>
  <path d="m110.93 324.27h-51.199c-4.7148 0-8.5352-3.8203-8.5352-8.5312 0-4.7148 3.8203-8.5352 8.5352-8.5352h51.199c4.7109 0 8.5312 3.8203 8.5312 8.5352 0 4.7109-3.8203 8.5312-8.5312 8.5312z"/>
  <path d="m435.2 418.13h-17.066c-14.133-0.015624-25.586-11.469-25.598-25.598v-136.54c-0.003906-2.2617 0.89453-4.4336 2.4961-6.0352 1.6016-1.6016 3.7734-2.5 6.0352-2.5h51.199c2.2656 0 4.4336 0.89844 6.0352 2.5 1.6016 1.6016 2.5 3.7734 2.5 6.0352v136.54c-0.015625 14.129-11.469 25.582-25.602 25.598zm-25.598-153.6v128c0.003907 4.7109 3.8203 8.5273 8.5312 8.5312h17.066c4.7109-0.003906 8.5312-3.8203 8.5352-8.5312v-128z"/>
  <path d="m452.27 358.4h-51.199c-4.7109 0-8.5312-3.8203-8.5312-8.5312 0-4.7148 3.8203-8.5352 8.5312-8.5352h51.199c4.7148 0 8.5352 3.8203 8.5352 8.5352 0 4.7109-3.8203 8.5312-8.5352 8.5312z"/>
  <path d="m452.27 324.27h-51.199c-4.7109 0-8.5312-3.8203-8.5312-8.5312 0-4.7148 3.8203-8.5352 8.5312-8.5352h51.199c4.7148 0 8.5352 3.8203 8.5352 8.5352 0 4.7109-3.8203 8.5312-8.5352 8.5312z"/>
  <path d="m281.6 358.4h-51.203c-14.129-0.015626-25.582-11.465-25.598-25.598v-76.801c0-2.2617 0.89844-4.4336 2.4961-6.0352 1.6016-1.6016 3.7734-2.5 6.0352-2.5h85.336c2.2617 0 4.4336 0.89844 6.0352 2.5 1.5977 1.6016 2.4961 3.7734 2.4961 6.0352v76.801c-0.015625 14.133-11.469 25.582-25.598 25.598zm-59.734-93.863v68.266c0.003906 4.7109 3.8203 8.5273 8.5312 8.5312h51.203c4.7109-0.003906 8.5273-3.8203 8.5312-8.5312v-68.266z"/>
  <path d="m372.72 223.32c-8.3672-0.007813-16.645-1.75-24.305-5.1094-4.3242-1.8828-6.2969-6.9141-4.4141-11.234 1.8867-4.3242 6.918-6.2969 11.238-4.4141 10.957 4.7539 23.387 4.7852 34.367 0.085938 10.98-4.6992 19.539-13.711 23.664-24.918l-19.504 11.223c-11.207 6.4375-25.512 2.5703-31.957-8.6328l-8.5703-14.875c-6.3555-11.195-2.5352-25.422 8.5742-31.926l22-12.605c-14.961-4.0195-30.926 0.25-41.887 11.195-10.957 10.949-15.238 26.914-11.23 41.879 1.2305 4.5469-1.457 9.2305-6.0039 10.465-4.5469 1.2305-9.2344-1.4531-10.469-6-6.5977-24.492 2.8242-50.496 23.582-65.074 20.754-14.582 48.414-14.629 69.215-0.11719 2.3945 1.6758 3.7617 4.4609 3.6328 7.375-0.13281 2.918-1.75 5.5664-4.2852 7.0195l-36.012 20.633c-3 1.7773-4.0273 5.6211-2.3164 8.6562l8.5703 14.875c0.83594 1.4609 2.2188 2.5273 3.8477 2.9688 1.625 0.4375 3.3555 0.20703 4.8125-0.63281l34.836-20.051c2.5938-1.4961 5.7852-1.5234 8.4062-0.066406 2.6172 1.457 4.2812 4.1797 4.3789 7.1758 0.44141 16.266-5.6953 32.023-17.02 43.711-11.324 11.691-26.879 18.32-43.156 18.395z"/>
  <path d="m255.23 264.54c-3.3203-0.003906-6.3359-1.9297-7.7383-4.9375-1.3984-3.0117-0.92188-6.5586 1.2148-9.0977l67.242-79.785c3.0391-3.6016 8.4219-4.0625 12.027-1.0234 3.6016 3.0391 4.0625 8.4219 1.0234 12.023l-67.242 79.785c-1.6211 1.9258-4.0117 3.0352-6.5273 3.0352z"/>
  <path d="m313.43 264.54c-3.3203-0.003906-6.3359-1.9297-7.7344-4.9375-1.3984-3.0117-0.92578-6.5586 1.2109-9.0977l38.402-45.566c3.0352-3.6055 8.4219-4.0625 12.023-1.0234 3.6055 3.0352 4.0625 8.418 1.0273 12.023l-38.402 45.566c-1.6211 1.9258-4.0117 3.0352-6.5273 3.0352z"/>
  <path d="m135.77 264.54c-2.9453 0.003906-5.6836-1.5117-7.2461-4.0117l-36.695-58.707c-8.1055-12.918-8.6953-29.184-1.5469-42.656 7.1484-13.473 20.941-22.105 36.184-22.641 15.242-0.53516 29.609 7.1094 37.684 20.047l59.32 94.91c2.4961 3.9961 1.2812 9.2617-2.7148 11.762-3.9961 2.5-9.2617 1.2852-11.762-2.7148l-59.305-94.891c-7.6484-11.773-23.258-15.363-35.277-8.1094-11.957 7.5078-15.582 23.27-8.1094 35.242l36.699 58.711c1.6445 2.6289 1.7305 5.9414 0.22656 8.6562-1.5 2.7109-4.3555 4.3945-7.457 4.4023z"/>
  <path d="m176.05 264.54c-2.9453 0.003906-5.6836-1.5117-7.2422-4.0117l-37.375-59.73c-1.6289-2.5859-1.75-5.8438-0.32031-8.543 1.4297-2.6992 4.1953-4.4258 7.2461-4.5312s5.9297 1.4297 7.5391 4.0234l37.375 59.734c1.6445 2.6289 1.7344 5.9414 0.23437 8.6562-1.5039 2.7109-4.3555 4.3984-7.457 4.4023z"/>
 </g>
</svg>